<svg width="360" height="87" viewBox="0 0 360 87" fill="none" xmlns="http://www.w3.org/2000/svg">
<g filter="url(#filter0_b_308_381)">
<path d="M142.252 23C145.072 23 147.564 21.2755 148.97 18.8314C155.442 7.57777 167.586 0 181.5 0C195.413 0 207.482 7.57722 213.939 18.8302C215.342 21.2757 217.834 23 220.654 23H340C351.046 23 360 31.9543 360 43V67C360 78.0457 351.046 87 340 87H20C8.95432 87 0 78.0457 0 67V43C0 31.9543 8.95431 23 20 23H142.252Z" fill="url(#paint0_linear_308_381)"/>
<path d="M142.252 23.5C145.284 23.5 147.926 21.6488 149.403 19.0807C155.79 7.97579 167.772 0.5 181.5 0.5C195.226 0.5 207.133 7.9743 213.505 19.0791C214.98 21.6491 217.622 23.5 220.654 23.5H340C350.77 23.5 359.5 32.2304 359.5 43V67C359.5 77.7695 350.77 86.5 340 86.5H20C9.23046 86.5 0.5 77.7695 0.5 67V43C0.5 32.2304 9.23045 23.5 20 23.5H142.252Z" stroke="url(#paint1_linear_308_381)"/>
</g>
<defs>
<filter id="filter0_b_308_381" x="-9" y="-9" width="378" height="105" filterUnits="userSpaceOnUse" color-interpolation-filters="sRGB">
<feFlood flood-opacity="0" result="BackgroundImageFix"/>
<feGaussianBlur in="BackgroundImageFix" stdDeviation="4.5"/>
<feComposite in2="SourceAlpha" operator="in" result="effect1_backgroundBlur_308_381"/>
<feBlend mode="normal" in="SourceGraphic" in2="effect1_backgroundBlur_308_381" result="shape"/>
</filter>
<linearGradient id="paint0_linear_308_381" x1="41" y1="-157.5" x2="180" y2="87" gradientUnits="userSpaceOnUse">
<stop stop-color="white"/>
<stop offset="0.517228" stop-color="#313030" stop-opacity="0"/>
<stop offset="0.671875" stop-opacity="0.546875"/>
<stop offset="1" stop-color="#070707"/>
</linearGradient>
<linearGradient id="paint1_linear_308_381" x1="70" y1="-308" x2="180" y2="87" gradientUnits="userSpaceOnUse">
<stop stop-color="#3F3F3F"/>
<stop offset="1" stop-color="white" stop-opacity="0"/>
<stop offset="1" stop-color="white" stop-opacity="0"/>
</linearGradient>
</defs>
</svg>
