<svg width="21" height="23" viewBox="0 0 21 23" fill="none" xmlns="http://www.w3.org/2000/svg">
<path d="M6.44223 3.15125L1.61056 5.88031L1.61056 0.422187L6.44223 3.15125Z" fill="#79BFFF"/>
<path d="M21 11.4999L16.1683 14.2289V8.77082L21 11.4999Z" fill="#023563"/>
<path d="M6.44223 8.71716L1.61056 11.4462L1.61056 5.98811L6.44223 8.71716Z" fill="#79BFFF"/>
<path d="M6.44223 14.2831L1.61056 17.0121L1.61056 11.554L6.44223 14.2831Z" fill="#00D0FF"/>
<path d="M6.44223 19.8485L1.61056 22.5776L1.61056 17.1195L6.44223 19.8485Z" fill="#00B1D9"/>
<path d="M11.2948 17.0658L6.46316 19.7949L6.46316 14.3367L11.2948 17.0658Z" fill="#0093B4"/>
<path d="M11.2948 11.4999L6.46316 14.2289L6.46316 8.77082L11.2948 11.4999Z" fill="#0F71B9"/>
<path d="M11.2948 5.93396L6.46316 8.66302L6.46316 3.2049L11.2948 5.93396Z" fill="#5197D7"/>
<path d="M16.1474 8.71716L11.3157 11.4462V5.98811L16.1474 8.71716Z" fill="#276BA9"/>
<path d="M16.1474 14.2831L11.3157 17.0121V11.554L16.1474 14.2831Z" fill="#036A81"/>
<path d="M11.2948 11.5001L16.1265 8.77106V14.2292L11.2948 11.5001Z" fill="#004E96"/>
<path d="M1.58965 5.9342L6.42132 3.20514L6.42132 8.66326L1.58965 5.9342Z" fill="#5197D7"/>
<path d="M1.58965 11.5001L6.42132 8.77106L6.42132 14.2292L1.58965 11.5001Z" fill="#00B1D9"/>
<path d="M1.58965 17.066L6.42132 14.337L6.42132 19.7951L1.58965 17.066Z" fill="#09AEC5"/>
<path d="M6.44223 8.71692L11.2739 5.98786V11.446L6.44223 8.71692Z" fill="#276BA9"/>
<path d="M6.44223 14.2828L11.2739 11.5538V17.0119L6.44223 14.2828Z" fill="#036A81"/>
</svg>
