<svg width="92" height="103" viewBox="0 0 92 103" fill="none" xmlns="http://www.w3.org/2000/svg">
<path d="M28.2231 14.1121L7.05577 26.3335L7.05577 1.89066L28.2231 14.1121Z" fill="#79BFFF"/>
<path d="M92 51.5L70.8327 63.7215V39.2786L92 51.5Z" fill="#023563"/>
<path d="M28.2231 39.0374L7.05577 51.2588L7.05577 26.8159L28.2231 39.0374Z" fill="#79BFFF"/>
<path d="M28.2231 63.9626L7.05577 76.1841L7.05577 51.7412L28.2231 63.9626Z" fill="#00D0FF"/>
<path d="M28.2231 88.8879L7.05577 101.109L7.05577 76.6665L28.2231 88.8879Z" fill="#00B1D9"/>
<path d="M49.4821 76.4253L28.3148 88.6467L28.3148 64.2038L49.4821 76.4253Z" fill="#0093B4"/>
<path d="M49.4821 51.5L28.3148 63.7215L28.3148 39.2786L49.4821 51.5Z" fill="#0F71B9"/>
<path d="M49.4821 26.5747L28.3148 38.7962L28.3148 14.3533L49.4821 26.5747Z" fill="#5197D7"/>
<path d="M70.741 39.0374L49.5737 51.2588V26.8159L70.741 39.0374Z" fill="#276BA9"/>
<path d="M70.741 63.9626L49.5737 76.1841V51.7412L70.741 63.9626Z" fill="#036A81"/>
<path d="M49.4821 51.5001L70.6494 39.2786V63.7215L49.4821 51.5001Z" fill="#004E96"/>
<path d="M6.96417 26.5747L28.1315 14.3533L28.1315 38.7962L6.96417 26.5747Z" fill="#5197D7"/>
<path d="M6.96417 51.5001L28.1315 39.2786L28.1315 63.7215L6.96417 51.5001Z" fill="#00B1D9"/>
<path d="M6.96417 76.4253L28.1315 64.2039L28.1315 88.6468L6.96417 76.4253Z" fill="#09AEC5"/>
<path d="M28.2231 39.0374L49.3904 26.816L49.3904 51.2589L28.2231 39.0374Z" fill="#276BA9"/>
<path d="M28.2231 63.9627L49.3904 51.7413L49.3904 76.1841L28.2231 63.9627Z" fill="#036A81"/>
</svg>
